<mxfile host="app.diagrams.net" agent="Mozilla/5.0 (Windows NT 10.0; Win64; x64) AppleWebKit/537.36 (KHTML, like Gecko) Chrome/138.0.0.0 Safari/537.36" version="28.0.9">
  <diagram name="Page-1" id="dxuUHq392e8i7Hi8ga-T">
    <mxGraphModel dx="1189" dy="529" grid="1" gridSize="10" guides="1" tooltips="1" connect="1" arrows="1" fold="1" page="1" pageScale="1" pageWidth="850" pageHeight="1100" math="0" shadow="0">
      <root>
        <mxCell id="0" />
        <mxCell id="1" parent="0" />
        <mxCell id="I0zvrI4CiR3RAIM8IW6d-1" value="" style="rounded=0;whiteSpace=wrap;html=1;" vertex="1" parent="1">
          <mxGeometry x="200" y="100" width="570" height="700" as="geometry" />
        </mxCell>
        <mxCell id="I0zvrI4CiR3RAIM8IW6d-2" value="Admin" style="text;html=1;align=center;verticalAlign=middle;whiteSpace=wrap;rounded=0;" vertex="1" parent="1">
          <mxGeometry x="220" y="110" width="60" height="30" as="geometry" />
        </mxCell>
        <mxCell id="I0zvrI4CiR3RAIM8IW6d-3" value="Server Backend" style="text;html=1;align=center;verticalAlign=middle;whiteSpace=wrap;rounded=0;" vertex="1" parent="1">
          <mxGeometry x="340" y="110" width="60" height="30" as="geometry" />
        </mxCell>
        <mxCell id="I0zvrI4CiR3RAIM8IW6d-5" value="" style="endArrow=none;html=1;rounded=0;entryX=0.186;entryY=0.003;entryDx=0;entryDy=0;entryPerimeter=0;exitX=0.215;exitY=1.001;exitDx=0;exitDy=0;exitPerimeter=0;" edge="1" parent="1" source="I0zvrI4CiR3RAIM8IW6d-1">
          <mxGeometry width="50" height="50" relative="1" as="geometry">
            <mxPoint x="320" y="420" as="sourcePoint" />
            <mxPoint x="320.44000000000005" y="100.96000000000004" as="targetPoint" />
          </mxGeometry>
        </mxCell>
        <mxCell id="I0zvrI4CiR3RAIM8IW6d-6" value="" style="endArrow=none;html=1;rounded=0;exitX=-0.004;exitY=0.072;exitDx=0;exitDy=0;exitPerimeter=0;entryX=0.997;entryY=0.071;entryDx=0;entryDy=0;entryPerimeter=0;" edge="1" parent="1" source="I0zvrI4CiR3RAIM8IW6d-1" target="I0zvrI4CiR3RAIM8IW6d-1">
          <mxGeometry width="50" height="50" relative="1" as="geometry">
            <mxPoint x="390" y="270" as="sourcePoint" />
            <mxPoint x="440" y="220" as="targetPoint" />
          </mxGeometry>
        </mxCell>
        <mxCell id="I0zvrI4CiR3RAIM8IW6d-7" value="" style="ellipse;whiteSpace=wrap;html=1;aspect=fixed;fillColor=#000000;" vertex="1" parent="1">
          <mxGeometry x="245" y="170" width="30" height="30" as="geometry" />
        </mxCell>
        <mxCell id="I0zvrI4CiR3RAIM8IW6d-9" value="masuk ke halaman form upload" style="rounded=1;whiteSpace=wrap;html=1;" vertex="1" parent="1">
          <mxGeometry x="220" y="220" width="80" height="60" as="geometry" />
        </mxCell>
        <mxCell id="I0zvrI4CiR3RAIM8IW6d-10" value="upload foto ktp dan selfie" style="rounded=1;whiteSpace=wrap;html=1;" vertex="1" parent="1">
          <mxGeometry x="220" y="310" width="80" height="60" as="geometry" />
        </mxCell>
        <mxCell id="I0zvrI4CiR3RAIM8IW6d-11" value="data diterima backend, dan diteruskan ke server ai" style="rounded=1;whiteSpace=wrap;html=1;" vertex="1" parent="1">
          <mxGeometry x="345" y="310" width="80" height="60" as="geometry" />
        </mxCell>
        <mxCell id="I0zvrI4CiR3RAIM8IW6d-12" value="data di proses di server ai dengan, face matching&lt;span style=&quot;white-space: pre;&quot;&gt;&#x9;&lt;/span&gt;" style="rounded=1;whiteSpace=wrap;html=1;" vertex="1" parent="1">
          <mxGeometry x="490" y="310" width="100" height="60" as="geometry" />
        </mxCell>
        <mxCell id="I0zvrI4CiR3RAIM8IW6d-13" value="respon face matching berhasil" style="rounded=1;whiteSpace=wrap;html=1;" vertex="1" parent="1">
          <mxGeometry x="490" y="430" width="100" height="60" as="geometry" />
        </mxCell>
        <mxCell id="I0zvrI4CiR3RAIM8IW6d-14" value="menerima hasil dari server ai" style="rounded=1;whiteSpace=wrap;html=1;" vertex="1" parent="1">
          <mxGeometry x="345" y="430" width="80" height="60" as="geometry" />
        </mxCell>
        <mxCell id="I0zvrI4CiR3RAIM8IW6d-15" value="menyimpan ke database" style="rounded=1;whiteSpace=wrap;html=1;" vertex="1" parent="1">
          <mxGeometry x="345" y="530" width="80" height="60" as="geometry" />
        </mxCell>
        <mxCell id="I0zvrI4CiR3RAIM8IW6d-16" value="simpan data" style="rounded=1;whiteSpace=wrap;html=1;" vertex="1" parent="1">
          <mxGeometry x="660" y="530" width="80" height="60" as="geometry" />
        </mxCell>
        <mxCell id="I0zvrI4CiR3RAIM8IW6d-17" value="berikan respon sukses, simpan data ke backend" style="rounded=1;whiteSpace=wrap;html=1;" vertex="1" parent="1">
          <mxGeometry x="650" y="640" width="100" height="60" as="geometry" />
        </mxCell>
        <mxCell id="I0zvrI4CiR3RAIM8IW6d-18" value="berkan notifikasi berhasil ke dashboard" style="rounded=1;whiteSpace=wrap;html=1;" vertex="1" parent="1">
          <mxGeometry x="335" y="640" width="100" height="60" as="geometry" />
        </mxCell>
        <mxCell id="I0zvrI4CiR3RAIM8IW6d-19" value="halaman dashboard" style="rounded=1;whiteSpace=wrap;html=1;" vertex="1" parent="1">
          <mxGeometry x="210" y="640" width="100" height="60" as="geometry" />
        </mxCell>
        <mxCell id="I0zvrI4CiR3RAIM8IW6d-20" value="" style="endArrow=none;html=1;rounded=0;entryX=0.186;entryY=0.003;entryDx=0;entryDy=0;entryPerimeter=0;exitX=0.215;exitY=1.001;exitDx=0;exitDy=0;exitPerimeter=0;" edge="1" parent="1">
          <mxGeometry width="50" height="50" relative="1" as="geometry">
            <mxPoint x="462.55999999999995" y="800.04" as="sourcePoint" />
            <mxPoint x="460" y="100" as="targetPoint" />
          </mxGeometry>
        </mxCell>
        <mxCell id="I0zvrI4CiR3RAIM8IW6d-21" value="" style="endArrow=none;html=1;rounded=0;entryX=0.186;entryY=0.003;entryDx=0;entryDy=0;entryPerimeter=0;exitX=0.215;exitY=1.001;exitDx=0;exitDy=0;exitPerimeter=0;" edge="1" parent="1">
          <mxGeometry width="50" height="50" relative="1" as="geometry">
            <mxPoint x="622.56" y="800" as="sourcePoint" />
            <mxPoint x="620" y="99.96000000000001" as="targetPoint" />
          </mxGeometry>
        </mxCell>
        <mxCell id="I0zvrI4CiR3RAIM8IW6d-22" value="Server AI" style="text;html=1;align=center;verticalAlign=middle;whiteSpace=wrap;rounded=0;" vertex="1" parent="1">
          <mxGeometry x="510" y="110" width="60" height="30" as="geometry" />
        </mxCell>
        <mxCell id="I0zvrI4CiR3RAIM8IW6d-23" value="Database" style="text;html=1;align=center;verticalAlign=middle;whiteSpace=wrap;rounded=0;" vertex="1" parent="1">
          <mxGeometry x="670" y="110" width="60" height="30" as="geometry" />
        </mxCell>
        <mxCell id="I0zvrI4CiR3RAIM8IW6d-24" value="" style="endArrow=classic;html=1;rounded=0;exitX=0.5;exitY=1;exitDx=0;exitDy=0;entryX=0.5;entryY=0;entryDx=0;entryDy=0;" edge="1" parent="1" source="I0zvrI4CiR3RAIM8IW6d-7" target="I0zvrI4CiR3RAIM8IW6d-9">
          <mxGeometry width="50" height="50" relative="1" as="geometry">
            <mxPoint x="360" y="340" as="sourcePoint" />
            <mxPoint x="410" y="290" as="targetPoint" />
          </mxGeometry>
        </mxCell>
        <mxCell id="I0zvrI4CiR3RAIM8IW6d-25" value="" style="endArrow=classic;html=1;rounded=0;exitX=0.5;exitY=1;exitDx=0;exitDy=0;entryX=0.5;entryY=0;entryDx=0;entryDy=0;" edge="1" parent="1" source="I0zvrI4CiR3RAIM8IW6d-9" target="I0zvrI4CiR3RAIM8IW6d-10">
          <mxGeometry width="50" height="50" relative="1" as="geometry">
            <mxPoint x="360" y="340" as="sourcePoint" />
            <mxPoint x="410" y="290" as="targetPoint" />
          </mxGeometry>
        </mxCell>
        <mxCell id="I0zvrI4CiR3RAIM8IW6d-26" value="" style="endArrow=classic;html=1;rounded=0;exitX=1;exitY=0.5;exitDx=0;exitDy=0;entryX=0;entryY=0.5;entryDx=0;entryDy=0;" edge="1" parent="1" source="I0zvrI4CiR3RAIM8IW6d-10" target="I0zvrI4CiR3RAIM8IW6d-11">
          <mxGeometry width="50" height="50" relative="1" as="geometry">
            <mxPoint x="360" y="340" as="sourcePoint" />
            <mxPoint x="410" y="290" as="targetPoint" />
          </mxGeometry>
        </mxCell>
        <mxCell id="I0zvrI4CiR3RAIM8IW6d-27" value="" style="endArrow=classic;html=1;rounded=0;exitX=1;exitY=0.5;exitDx=0;exitDy=0;" edge="1" parent="1" source="I0zvrI4CiR3RAIM8IW6d-11" target="I0zvrI4CiR3RAIM8IW6d-12">
          <mxGeometry width="50" height="50" relative="1" as="geometry">
            <mxPoint x="460" y="340" as="sourcePoint" />
            <mxPoint x="510" y="290" as="targetPoint" />
          </mxGeometry>
        </mxCell>
        <mxCell id="I0zvrI4CiR3RAIM8IW6d-28" value="" style="endArrow=classic;html=1;rounded=0;exitX=0.5;exitY=1;exitDx=0;exitDy=0;entryX=0.5;entryY=0;entryDx=0;entryDy=0;" edge="1" parent="1" source="I0zvrI4CiR3RAIM8IW6d-12" target="I0zvrI4CiR3RAIM8IW6d-13">
          <mxGeometry width="50" height="50" relative="1" as="geometry">
            <mxPoint x="720" y="440" as="sourcePoint" />
            <mxPoint x="770" y="390" as="targetPoint" />
          </mxGeometry>
        </mxCell>
        <mxCell id="I0zvrI4CiR3RAIM8IW6d-29" value="" style="endArrow=classic;html=1;rounded=0;exitX=0;exitY=0.5;exitDx=0;exitDy=0;entryX=1;entryY=0.5;entryDx=0;entryDy=0;" edge="1" parent="1" source="I0zvrI4CiR3RAIM8IW6d-13" target="I0zvrI4CiR3RAIM8IW6d-14">
          <mxGeometry width="50" height="50" relative="1" as="geometry">
            <mxPoint x="590" y="460" as="sourcePoint" />
            <mxPoint x="640" y="410" as="targetPoint" />
          </mxGeometry>
        </mxCell>
        <mxCell id="I0zvrI4CiR3RAIM8IW6d-30" value="" style="endArrow=classic;html=1;rounded=0;exitX=0.5;exitY=1;exitDx=0;exitDy=0;entryX=0.5;entryY=0;entryDx=0;entryDy=0;" edge="1" parent="1" source="I0zvrI4CiR3RAIM8IW6d-14" target="I0zvrI4CiR3RAIM8IW6d-15">
          <mxGeometry width="50" height="50" relative="1" as="geometry">
            <mxPoint x="540" y="580" as="sourcePoint" />
            <mxPoint x="590" y="530" as="targetPoint" />
          </mxGeometry>
        </mxCell>
        <mxCell id="I0zvrI4CiR3RAIM8IW6d-31" value="" style="endArrow=classic;html=1;rounded=0;exitX=1;exitY=0.5;exitDx=0;exitDy=0;entryX=0;entryY=0.5;entryDx=0;entryDy=0;" edge="1" parent="1" source="I0zvrI4CiR3RAIM8IW6d-15" target="I0zvrI4CiR3RAIM8IW6d-16">
          <mxGeometry width="50" height="50" relative="1" as="geometry">
            <mxPoint x="540" y="620" as="sourcePoint" />
            <mxPoint x="590" y="570" as="targetPoint" />
          </mxGeometry>
        </mxCell>
        <mxCell id="I0zvrI4CiR3RAIM8IW6d-32" value="" style="endArrow=classic;html=1;rounded=0;exitX=0.5;exitY=1;exitDx=0;exitDy=0;entryX=0.5;entryY=0;entryDx=0;entryDy=0;" edge="1" parent="1" source="I0zvrI4CiR3RAIM8IW6d-16" target="I0zvrI4CiR3RAIM8IW6d-17">
          <mxGeometry width="50" height="50" relative="1" as="geometry">
            <mxPoint x="670" y="670" as="sourcePoint" />
            <mxPoint x="720" y="620" as="targetPoint" />
          </mxGeometry>
        </mxCell>
        <mxCell id="I0zvrI4CiR3RAIM8IW6d-33" value="" style="endArrow=classic;html=1;rounded=0;exitX=0;exitY=0.5;exitDx=0;exitDy=0;" edge="1" parent="1" source="I0zvrI4CiR3RAIM8IW6d-17" target="I0zvrI4CiR3RAIM8IW6d-18">
          <mxGeometry width="50" height="50" relative="1" as="geometry">
            <mxPoint x="670" y="670" as="sourcePoint" />
            <mxPoint x="720" y="620" as="targetPoint" />
          </mxGeometry>
        </mxCell>
        <mxCell id="I0zvrI4CiR3RAIM8IW6d-34" value="" style="endArrow=classic;html=1;rounded=0;exitX=0;exitY=0.5;exitDx=0;exitDy=0;entryX=1;entryY=0.5;entryDx=0;entryDy=0;" edge="1" parent="1" source="I0zvrI4CiR3RAIM8IW6d-18" target="I0zvrI4CiR3RAIM8IW6d-19">
          <mxGeometry width="50" height="50" relative="1" as="geometry">
            <mxPoint x="460" y="670" as="sourcePoint" />
            <mxPoint x="510" y="620" as="targetPoint" />
          </mxGeometry>
        </mxCell>
        <mxCell id="I0zvrI4CiR3RAIM8IW6d-47" value="" style="ellipse;html=1;shape=endState;fillColor=#000000;strokeColor=#ff0000;" vertex="1" parent="1">
          <mxGeometry x="245" y="730" width="30" height="30" as="geometry" />
        </mxCell>
        <mxCell id="I0zvrI4CiR3RAIM8IW6d-48" value="" style="endArrow=classic;html=1;rounded=0;exitX=0.5;exitY=1;exitDx=0;exitDy=0;entryX=0.5;entryY=0;entryDx=0;entryDy=0;" edge="1" parent="1" source="I0zvrI4CiR3RAIM8IW6d-19" target="I0zvrI4CiR3RAIM8IW6d-47">
          <mxGeometry width="50" height="50" relative="1" as="geometry">
            <mxPoint x="410" y="750" as="sourcePoint" />
            <mxPoint x="460" y="700" as="targetPoint" />
          </mxGeometry>
        </mxCell>
      </root>
    </mxGraphModel>
  </diagram>
</mxfile>
